inDegrees=yes
name=ik_S54_A03_T01
DataType=double
version=3
OpenSimVersion=4.3-2021-08-27-4bc7ad9
endheader
time	pelvis_tilt	pelvis_list	pelvis_rotation	pelvis_tx	pelvis_ty	pelvis_tz	hip_flexion_r	hip_adduction_r	hip_rotation_r	knee_angle_r	knee_angle_r_beta	ankle_angle_r	subtalar_angle_r	mtp_angle_r	hip_flexion_l	hip_adduction_l	hip_rotation_l	knee_angle_l	knee_angle_l_beta	ankle_angle_l	subtalar_angle_l	mtp_angle_l	lumbar_extension	lumbar_bending	lumbar_rotation	arm_flex_r	arm_add_r	arm_rot_r	elbow_flex_r	pro_sup_r	wrist_flex_r	wrist_dev_r	arm_flex_l	arm_add_l	arm_rot_l	elbow_flex_l	pro_sup_l	wrist_flex_l	wrist_dev_l
8.779999999999902	-3.837570034507158	1.865226616922645	94.49256799486831	0	0.9399999999999999	0	-6.659549514029475	-4.420007531270857	-8.168832146056898	35.04844082794347	0.611710690138021	0	0	0	6.445778282869814	3.351135088467536	0.7591291278872567	0.8937077827945227	0.01559814336046275	0	0	0	0	0	0	27.68342633119797	-27.68342633119797	4.047874679589105	71.63480156921656	85.95212554884374	0	0	27.68342633119797	-27.68342633119797	4.047874679589105	71.63480156921656	85.95212554866576	0	0
8.799999999999901	-4.130937820875459	1.712270689556715	94.83333386548037	0	0.9399999999999999	0	-5.518641547714399	-4.93733405242263	-9.743965119851726	36.58364824305512	0.6385051142327505	0	0	0	6.546355940059896	3.756287155700296	0.9560705900607389	1.442353271172574	0.02517381355887203	0	0	0	0	0	0	27.69072648052435	-27.69072648052434	4.048669450166428	71.64617953561513	85.95133077830859	0	0	27.69072648052435	-27.69072648052434	4.048669450166428	71.64617953561513	85.95133077813074	0	0
8.819999999999901	-4.156357955341893	1.496745390017582	95.0650106857032	0	0.9399999999999999	0	-5.38910410102421	-5.102447400533438	-10.20083205185437	36.32725644017616	0.6340302330973884	0	0	0	4.160626659692102	4.324669984016936	-1.295234550393631	0.3044646251689375	0.005313910165048356	0	0	0	0	0	0	27.70584354952072	-27.70584354952071	4.050154470505702	71.66730028074718	85.94984575804688	0	0	27.70584354952072	-27.70584354952071	4.050154470505702	71.66730028074718	85.94984575786926	0	0
8.8399999999999	-4.018483895215079	1.356384368785913	95.33133129261762	0	0.9399999999999999	0	-2.274057204635135	-4.895432204432885	-11.72567280092077	36.38912446389498	0.6351100338129838	0	0	0	3.031115740173399	4.620554010134717	-0.324267902166288	-0.5484730072406415	-0.009572659834663894	0	0	0	0	0	0	27.74528930905335	-27.74528930905334	4.053859672715799	71.71984023253671	85.94614055602882	0	0	27.74528930905335	-27.74528930905334	4.053859672715799	71.71984023253671	85.94614055585191	0	0
8.8599999999999	-3.843479146781657	1.297881921023863	95.6478197463327	0	0.9399999999999999	0	-0.06125820472806364	-4.586760591252044	-11.42854182093371	35.86516778755967	0.6259652646731264	0	0	0	1.139679304431372	4.765267355127703	0.350320133482617	-2.100119463932991	-0.03665399933084899	0	0	0	0	0	0	27.73828031991883	-27.73828031991883	4.053262920195118	71.71142219664776	85.94673730851892	0	0	27.73828031991883	-27.73828031991883	4.053262920195118	71.71142219664776	85.94673730834189	0	0
8.8799999999999	-3.600299941817809	1.170835216080732	95.91615537639747	0	0.9399999999999999	0	2.301645498443478	-4.277558597829143	-10.64523093468907	37.86983452606691	0.6609532996652939	0	0	0	1.21875983740218	4.607051692390403	0.3864732634922398	-1.322461733246307	-0.02308131147677902	0	0	0	0	0	0	27.83290089522174	-27.83290089522173	4.062066064218863	71.8361747632795	85.93793416495085	0	0	27.83290089522174	-27.83290089522173	4.062066064218863	71.8361747632795	85.9379341647754	0	0
8.899999999999899	-3.341333300556677	1.127272144362907	96.28887763110832	0	0.9399999999999999	0	4.864500882063824	-3.344506060622743	-9.414391157232933	32.95045868631783	0.5750939941186116	0	0	0	0.4187986769591978	4.324914222863036	-1.938486732660675	-0.725424412885712	-0.01266104447920245	0	0	0	0	0	0	27.88327693305671	-27.8832769330567	4.066804528154025	71.90337386005815	85.93319570126138	0	0	27.88327693305671	-27.8832769330567	4.066804528154025	71.90337386005815	85.9331957010868	0	0
8.919999999999899	-3.196342528486378	1.168229726597577	96.52048941623922	0	0.9399999999999999	0	7.28631418346756	-2.986791511320213	-7.934436091960114	30.82160239800825	0.5379384425858237	0	0	0	0.3551017008685734	4.189209778440055	-1.766916868790707	-0.346810986481477	-0.006052993596191318	0	0	0	0	0	0	27.94261339251815	-27.94261339251814	4.072360049949792	71.98213320577702	85.92764017975341	0	0	27.94261339251815	-27.94261339251814	4.072360049949792	71.98213320577702	85.92764017957994	0	0
8.939999999999898	-2.894234752598902	1.186313884112854	96.94632041031177	0	0.9399999999999999	0	9.991487081106843	-2.777633339584336	-6.574763317122997	28.53454047722623	0.4980216818711918	0	0	0	-1.257453394644422	4.404086540595205	0.0629527542456679	-1.338625330410312	-0.02336341946625691	0	0	0	0	0	0	27.98676654992196	-27.98676654992195	4.076506483269711	72.04091698518779	85.9234937466483	0	0	27.98676654992196	-27.98676654992195	4.076506483269711	72.04091698518779	85.92349374647563	0	0
8.959999999999898	-2.625410918624993	1.144240498981786	97.38805750426874	0	0.9399999999999999	0	12.50279209414413	-2.618196978129754	-5.73048685929351	25.80907047031831	0.450453256586296	0	0	0	-1.703591728772287	4.226483938153717	-1.172329495780843	0.348417738671966	0.006081036712178981	0	0	0	0	0	0	28.0537873420478	-28.0537873420478	4.082711432114748	72.12881719595948	85.91728879812415	0	0	28.0537873420478	-28.0537873420478	4.082711432114748	72.12881719595948	85.91728879795257	0	0
8.979999999999897	-2.441044792754899	1.142115818060543	97.83822964714135	0	0.9399999999999999	0	14.38439428129895	-2.252977219479138	-5.408704460430861	22.35536486432511	0.3901747223671287	0	0	0	-2.02896070494327	4.018132032076194	-2.338399470683874	0.416415820587396	0.007267827126644047	0	0	0	0	0	0	28.08635037496033	-28.08635037496032	4.085762089922933	72.1720638110709	85.914238140474	0	0	28.08635037496033	-28.08635037496032	4.085762089922933	72.1720638110709	85.91423814030303	0	0
8.999999999999897	-2.333964837395598	1.21665151772072	98.22760247590864	0	0.9399999999999999	0	15.59282446747802	-1.642058451967576	-5.3311398129769	18.09640298817615	0.3158418149114143	0	0	0	-2.848878428383733	4.023123042184441	-1.896083030830872	1.676805641223776	0.02926577935536965	0	0	0	0	0	0	28.14283346520159	-28.14283346520159	4.09100222765317	72.24629091227335	85.90899800301463	0	0	28.14283346520159	-28.14283346520159	4.09100222765317	72.24629091227335	85.90899800284468	0	0
9.019999999999897	-2.286975467987403	1.282260514236162	98.50007107474755	0	0.9399999999999999	0	16.48487881010853	-0.9992905345379497	-5.038756776352916	13.97939369998545	0.2439864474972986	0	0	0	-3.931505460844702	4.265499562009818	-0.5130829278424826	1.51170522140439	0.02638423343309647	0	0	0	0	0	0	28.09210932512841	-28.0921093251284	4.086576940629532	72.18383049199747	85.91342328981156	0	0	28.09210932512841	-28.0921093251284	4.086576940629532	72.18383049199747	85.91342328964075	0	0
9.039999999999896	-2.245984556216939	1.174342474637457	98.68819739783028	0	0.9399999999999999	0	17.2093836661262	-0.3509585664336254	-4.7472947258947	9.771442181270629	0.1705438387314291	0	0	0	-4.627984024864002	4.391403589385663	-0.2690571886758821	1.71931439525997	0.03000769707422166	0	0	0	0	0	0	28.0979411216945	-28.0979411216945	4.087196961389627	72.19268518877992	85.91280326908421	0	0	28.0979411216945	-28.0979411216945	4.087196961389627	72.19268518877992	85.91280326891346	0	0
9.059999999999896	-2.295582142465849	1.151361965026729	98.68381401745121	0	0.9399999999999999	0	17.21175987655863	-0.4030173163935526	-4.717014534798862	9.778694876108853	0.1706704221359985	0	0	0	-5.328664855167037	4.547238804097991	-0.9678484241598182	2.137774033791945	0.03731119555330995	0	0	0	0	0	0	28.09970714110548	-28.09970714110547	4.087385820304448	72.19538323979641	85.91261441017937	0	0	28.09970714110548	-28.09970714110547	4.087385820304448	72.19538323979641	85.91261441000867	0	0
9.079999999999895	-2.438917536887117	1.010235674441443	98.62186777689824	0	0.9399999999999999	0	17.70621104303624	0.06310864152827043	-4.38012640916321	5.890528064388542	0.1028091094047086	0	0	0	-6.033923540786987	4.871792130403497	-0.9110924528286658	2.547931798545678	0.04446979900088295	0	0	0	0	0	0	28.10821969851409	-28.10821969851409	4.08828638246304	72.20824023483377	85.91171384806837	0	0	28.10821969851409	-28.10821969851409	4.08828638246304	72.20824023483377	85.91171384789781	0	0
9.099999999999895	-2.726869993168478	0.8905049621045407	98.57182940831665	0	0.9399999999999999	0	18.03557727875959	-0.2983303489882175	-3.493591932926197	-0.9309714570161731	-0.01624851716702108	0	0	0	-6.886748097533683	5.428997234656895	-0.6216671407629187	2.195817987846064	0.03832425366243065	0	0	0	0	0	0	28.39072724097825	-28.39072724097824	4.122304793658869	72.69522167515038	85.87769543869445	0	0	28.39072724097825	-28.39072724097824	4.122304793658869	72.69522167515038	85.87769543853025	0	0
9.119999999999894	-3.012253404736584	0.6742933766866452	98.5382491240742	0	0.9399999999999999	0	18.40320384653572	-0.8950751837886568	-2.399447826298126	-3.780230608464155	-0.06597747060236814	0	0	0	-7.368152500536353	5.873332791650286	-1.497422574553215	3.670994460608623	0.06407094016009375	0	0	0	0	0	0	28.39879520869937	-28.39879520869936	4.123150160718684	72.70727217996041	85.8768500716791	0	0	28.39879520869937	-28.39879520869936	4.123150160718684	72.70727217996041	85.87685007151511	0	0
